PathFileType	4	(X/Y/Z)	../motion_lab\static\static_01\task.trc
DataRate	CameraRate	NumFrames	NumMarkers	Units	OrigDataRate	OrigDataStartFrame	OrigNumFrames
200.000000	200.000000	4	73	mm	200.000000	0	693
Frame#	Time	Athlete_3:GLAB			Athlete_3:RFHD			Athlete_3:LFHD			Athlete_3:C7			Athlete_3:T6			Athlete_3:SPINMOL			Athlete_3:SPINM2			Athlete_3:SPINM3			Athlete_3:T12			Athlete_3:BELTOL			Athlete_3:BELT2			Athlete_3:BELT3			Athlete_3:SACROL			Athlete_3:SACR2			Athlete_3:SACR3			Athlete_3:LASI			Athlete_3:RASI			Athlete_3:LPSI			Athlete_3:RPSI			Athlete_3:LTHOL			Athlete_3:LTH2			Athlete_3:LTH3			Athlete_3:LKNEL			Athlete_3:LKNEM			Athlete_3:LFIB			Athlete_3:LSHAOL			Athlete_3:LSHA2			Athlete_3:LSHA3			Athlete_3:LMALL			Athlete_3:LMALM			Athlete_3:LHEE			Athlete_3:LTOE			Athlete_3:LM5			Athlete_3:RTHOL			Athlete_3:RTH2			Athlete_3:RTH3			Athlete_3:RKNEL			Athlete_3:RKNEM			Athlete_3:RFIB			Athlete_3:RSHAOL			Athlete_3:RSHA2			Athlete_3:RSHA3			Athlete_3:RMALL			Athlete_3:RMALM			Athlete_3:RHEE			Athlete_3:RTOE			Athlete_3:RM5			Athlete_3:STRN			Athlete_3:XIPH			Athlete_3:LACR			Athlete_3:LUAOL			Athlete_3:LUA2			Athlete_3:LUA3			Athlete_3:LCUBL			Athlete_3:LCUBM			Athlete_3:LLAOL			Athlete_3:LLA2			Athlete_3:LLA3			Athlete_3:LWRR			Athlete_3:LWRU			Athlete_3:RACR			Athlete_3:RUAOL			Athlete_3:RUA2			Athlete_3:RUA3			Athlete_3:RCUBL			Athlete_3:RCUBM			Athlete_3:RLAOL			Athlete_3:RLA2			Athlete_3:RLA3			Athlete_3:RWRR			Athlete_3:RWRU			Bar:BL			Bar:BR			
		X1	Y1	Z1	X2	Y2	Z2	X3	Y3	Z3	X4	Y4	Z4	X5	Y5	Z5	X6	Y6	Z6	X7	Y7	Z7	X8	Y8	Z8	X9	Y9	Z9	X10	Y10	Z10	X11	Y11	Z11	X12	Y12	Z12	X13	Y13	Z13	X14	Y14	Z14	X15	Y15	Z15	X16	Y16	Z16	X17	Y17	Z17	X18	Y18	Z18	X19	Y19	Z19	X20	Y20	Z20	X21	Y21	Z21	X22	Y22	Z22	X23	Y23	Z23	X24	Y24	Z24	X25	Y25	Z25	X26	Y26	Z26	X27	Y27	Z27	X28	Y28	Z28	X29	Y29	Z29	X30	Y30	Z30	X31	Y31	Z31	X32	Y32	Z32	X33	Y33	Z33	X34	Y34	Z34	X35	Y35	Z35	X36	Y36	Z36	X37	Y37	Z37	X38	Y38	Z38	X39	Y39	Z39	X40	Y40	Z40	X41	Y41	Z41	X42	Y42	Z42	X43	Y43	Z43	X44	Y44	Z44	X45	Y45	Z45	X46	Y46	Z46	X47	Y47	Z47	X48	Y48	Z48	X49	Y49	Z49	X50	Y50	Z50	X51	Y51	Z51	X52	Y52	Z52	X53	Y53	Z53	X54	Y54	Z54	X55	Y55	Z55	X56	Y56	Z56	X57	Y57	Z57	X58	Y58	Z58	X59	Y59	Z59	X60	Y60	Z60	X61	Y61	Z61	X62	Y62	Z62	X63	Y63	Z63	X64	Y64	Z64	X65	Y65	Z65	X66	Y66	Z66	X67	Y67	Z67	X68	Y68	Z68	X69	Y69	Z69	X70	Y70	Z70	X71	Y71	Z71	X72	Y72	Z72	X73	Y73	Z73	

1	0	1216.7275390625	1572.940551757813	349.1359863281251	1140.712280273438	1588.592407226563	289.7665405273439	1292.831420898438	1588.292114257813	286.1170959472657	1213.634033203125	1449.50146484375	123.5680847167969	1228.533203125	1243.983154296875	69.66680908203128	1232.80810546875	1211.793090820313	65.61782073974612	1180.928588867188	1150.937866210938	60.54897308349612	1229.804321289063	1150.0498046875	69.71385192871097	1228.477172851563	1109.147827148438	83.25581359863284	1227.870849609375	1086.572998046875	60.14894866943362	1174.737426757813	1026.994262695313	61.40110015869143	1224.372314453125	1024.776977539063	53.98907852172854	1249.76806640625	974.8418579101567	65.08804321289065	1199.911499023438	984.5251464843755	71.64577484130862	1211.183959960938	926.0350952148442	42.05163192749025	1337.515014648438	943.0339355468755	281.6358642578126	1109.756713867188	942.4157714843755	284.916473388672	1261.441772460938	990.9721679687505	76.50938415527347	1172.191650390625	989.631225585938	76.71394348144534	1445.186767578125	737.3085937500002	196.8957366943361	1428.3154296875	676.4322509765627	148.0628356933594	1440.913452148438	675.410827636719	196.8014526367189	1427.8759765625	498.2577209472659	190.3100891113282	1283.817504882813	467.011657714844	213.2114868164064	1429.30859375	442.1010742187502	150.6499633789063	1450.716430664063	325.7385864257814	143.2032012939454	1444.908447265625	259.3548889160157	100.5113983154297	1450.45849609375	263.8221130371095	149.8159637451172	1434.370971679688	85.05850219726565	125.8252334594727	1350.720825195313	96.33909606933599	169.0392303466797	1374.879760742188	38.65782546997072	78.3228454589844	1391.226928710938	47.42777252197267	289.6551208496095	1492.1396484375	32.12074661254884	238.5632934570314	1006.83154296875	708.3880004882815	170.3184509277344	993.2910156250005	636.463317871094	202.5722656250001	1009.9150390625	647.598327636719	156.5712127685547	1014.132141113282	496.8933715820315	158.2839965820313	1152.201416015625	461.9595642089846	206.1228485107423	1015.370422363282	442.145935058594	114.6710891723633	998.9295043945317	322.8100891113282	90.50697326660159	983.7350463867192	255.5775451660157	130.1310577392579	1002.553649902344	261.4353027343751	83.85822296142581	1016.735656738282	86.57964324951175	89.87820434570315	1084.25341796875	96.96558380126959	152.7750244140626	1077.632690429688	38.06263351440431	57.9370040893555	1022.283081054688	43.26970672607423	261.5896911621095	937.2832641601567	40.99268722534181	202.3693847656251	1225.250244140625	1368.25537109375	273.691131591797	1227.06298828125	1210.676025390625	311.7849731445314	1401.924682617188	1414.421020507813	135.9582672119141	1515.715942382813	1349.814331054688	124.3614196777344	1558.317626953126	1299.40234375	115.5804672241212	1575.089355468751	1335.126220703125	149.5963592529297	1683.494262695313	1298.321044921875	161.6716003417969	1633.859985351563	1212.17529296875	184.8669738769532	1769.367431640626	1267.248413085938	191.2671661376954	1823.842285156251	1231.01171875	197.4683227539064	1817.197387695313	1262.732421875	235.8961029052736	1862.659790039063	1192.126220703125	306.142547607422	1905.335083007813	1213.813598632813	248.5639801025392	1042.59716796875	1403.593994140625	150.9197235107422	909.9356079101567	1337.154541015625	161.4674377441407	866.9987792968755	1328.724975585938	211.5243682861329	846.410034179688	1317.635009765625	166.4615020751954	795.8230590820317	1291.183349609375	158.9454803466797	809.1497192382817	1197.639526367188	214.9549560546876	673.2290039062502	1273.792114257813	216.5863494873048	633.4749755859377	1262.3974609375	267.312957763672	613.156677246094	1249.758666992188	222.4770660400392	580.271423339844	1182.709838867188	305.2749633789064	543.878112792969	1214.929809570313	239.0426330566407	2309.249267578126	1284.970581054688	1515.53173828125	83.78334045410159	1283.442016601563	1540.556884765626	
2	0.005	1216.736938476563	1572.977416992188	349.1375732421876	1140.707641601563	1588.611450195313	289.7860717773439	1292.82177734375	1588.317993164063	286.1183471679689	1213.618041992188	1449.505981445313	123.5912399291993	1228.519165039063	1243.9853515625	69.69502258300784	1232.800170898438	1211.79931640625	65.63511657714847	1180.915161132813	1150.938720703125	60.57741546630862	1229.794921875	1150.040771484375	69.73625183105472	1228.471923828125	1109.153442382813	83.27716064453128	1227.865966796875	1086.576782226563	60.17566680908206	1174.7265625	1027.002807617188	61.42106246948245	1224.367309570313	1024.781372070313	54.01323699951175	1249.765991210938	974.8748168945317	65.07730865478518	1199.903686523438	984.5276489257817	71.70530700683597	1211.186645507813	926.0370483398442	42.0637550354004	1337.516235351563	943.0290527343755	281.6567382812501	1109.758666992188	942.4142456054692	284.9393005371095	1261.440185546875	990.9838256835942	76.51821136474612	1172.189208984375	989.6367187500005	76.74421691894534	1445.189453125	737.3108520507815	196.9030303955079	1428.303955078125	676.4326782226565	148.0758666992188	1440.919677734375	675.4100341796877	196.8191070556642	1427.869018554688	498.2597656250002	190.3219451904297	1283.816650390625	467.0232238769534	213.2254180908204	1429.306762695313	442.1017150878909	150.6632080078126	1450.717407226563	325.7433166503907	143.2063446044922	1444.916137695313	259.3528747558595	100.5226364135743	1450.46435546875	263.8242797851564	149.8183898925782	1434.374267578125	85.05513763427737	125.8269958496094	1350.713500976563	96.34017944335943	169.0355682373047	1374.884399414063	38.65840911865236	78.32318115234378	1391.229858398438	47.43373107910158	289.6558837890626	1492.14013671875	32.11911773681642	238.5594482421876	1006.828796386719	708.3853149414065	170.3441619873047	993.2902221679692	636.4638671875002	202.5854949951173	1009.921691894532	647.592712402344	156.5954589843751	1014.133666992188	496.8958435058596	158.3105621337891	1152.203491210938	461.9568786621096	206.1414642333986	1015.366638183594	442.1463928222659	114.6920242309571	998.9282226562505	322.8204345703126	90.51941680908206	983.3889160156255	255.8538818359376	130.0444793701172	1002.548400878907	261.4585571289064	83.86330413818362	1016.740783691407	86.57929229736331	89.88322448730472	1084.2548828125	96.96484375000006	152.7776641845704	1077.629638671875	38.05748367309572	57.94674301147464	1022.279846191407	43.26328277587892	261.5857849121095	937.2854614257817	40.99432373046876	202.3721008300782	1225.245361328125	1368.262573242188	273.7325439453126	1227.06494140625	1210.677856445313	311.8264465332032	1401.906127929688	1414.429077148438	135.9882354736329	1515.689575195313	1349.827880859375	124.3740844726563	1558.300659179688	1299.421752929688	115.5755157470704	1575.068481445313	1335.137084960938	149.5991516113282	1683.473266601563	1298.338134765625	161.6714630126954	1633.856689453126	1212.19189453125	184.8617095947266	1769.371704101563	1267.267333984375	191.268051147461	1823.834106445313	1231.037841796875	197.4575958251954	1817.187500000001	1262.761108398438	235.8874816894532	1862.658813476563	1192.160888671875	306.1326904296876	1905.328247070313	1213.8447265625	248.5614166259767	1042.591674804688	1403.593505859375	150.9583892822266	909.899291992188	1337.136108398438	161.5039520263672	866.989135742188	1328.745727539063	211.5662231445314	846.3994140625005	1317.648193359375	166.5181274414063	795.8146972656255	1291.202026367188	159.0124816894532	809.1272583007817	1197.661743164063	215.0089874267579	673.2473754882815	1273.8505859375	216.6204986572267	633.456726074219	1262.415771484375	267.3975219726564	613.1610107421877	1249.795532226563	222.5361633300782	580.2581176757815	1182.736450195313	305.340789794922	543.8670654296877	1214.979370117188	239.1172027587892	2309.229980468751	1284.980712890625	1515.4658203125	83.78971862792972	1283.4375	1540.560302734376	
3	0.01	1216.962890625	1573.080444335938	348.6876220703126	1140.709594726563	1588.622314453126	289.7845153808595	1292.82177734375	1588.333251953126	286.1010742187501	1213.60595703125	1449.501586914063	123.6197967529297	1228.5185546875	1243.9873046875	69.70912170410159	1232.784057617188	1211.810913085938	65.6738204956055	1180.904541015625	1150.94580078125	60.59403228759768	1229.784912109375	1150.0400390625	69.75644683837893	1228.467041015625	1109.151489257813	83.29907989501956	1227.86083984375	1086.575805664063	60.20108795166018	1174.717407226563	1027.005615234375	61.43698501586917	1224.361450195313	1024.78271484375	54.03926849365237	1249.768432617188	974.8525390625005	65.13857269287112	1199.90087890625	984.520874023438	71.69694519042972	1211.176879882813	926.0289916992192	42.08705902099611	1337.514770507813	943.024536132813	281.6743469238282	1109.75439453125	942.414184570313	284.9584350585939	1261.4189453125	990.9775390625005	76.55393218994143	1172.1806640625	989.6420898437505	76.76406860351565	1445.190673828125	737.307800292969	196.9106750488282	1428.300170898438	676.429382324219	148.0807800292969	1440.919189453125	675.4094848632815	196.8267517089845	1427.864379882813	498.2542724609377	190.3257598876954	1283.800903320313	467.0057067871096	213.2234191894532	1429.304443359375	442.1070861816409	150.6735076904297	1450.711181640625	325.7405395507814	143.215072631836	1444.924438476563	259.356170654297	100.5262603759766	1450.467895507813	263.8252868652345	149.8291931152344	1434.373779296875	85.06107330322268	125.8310470581055	1350.714721679688	96.33501434326178	169.0345611572266	1374.880249023438	38.66403579711915	78.32255554199222	1391.2265625	47.43142700195314	289.6585388183595	1492.14013671875	32.11795043945314	238.5603790283204	1006.824645996094	708.3839111328127	170.3606414794922	993.2921752929692	636.4677734375002	202.6024475097657	1009.90576171875	647.595886230469	156.6141967773438	1014.130554199219	496.886413574219	158.3153076171876	1152.191528320313	461.9604187011721	206.1723785400392	1015.361083984375	442.147155761719	114.703353881836	998.9211425781255	322.8204650878907	90.53419494628909	983.7335815429692	255.5789031982423	130.1443481445313	1002.544250488282	261.4376831054689	83.88320922851565	1016.737060546875	86.58332061767581	89.88267517089847	1084.257934570313	96.96371459960943	152.7785644531251	1077.630249023438	38.05889129638673	57.93984222412112	1022.285583496094	43.26324844360353	261.587860107422	937.281372070313	40.9935874938965	202.3737792968751	1225.242797851563	1368.261108398438	273.7739257812501	1227.067260742188	1210.687255859375	311.8734436035157	1401.88525390625	1414.43603515625	136.0201110839844	1515.675903320313	1349.853759765625	124.3982620239258	1558.265380859376	1299.443237304688	115.5912857055665	1575.054199218751	1335.159057617188	149.6225128173829	1683.467163085938	1298.354248046875	161.6732788085938	1633.854370117188	1212.211547851563	184.8634796142579	1769.360229492188	1267.294067382813	191.2500762939454	1823.826293945313	1231.064575195313	197.4492950439454	1817.183349609376	1262.791259765625	235.8802185058595	1862.653564453126	1192.19189453125	306.1231994628907	1905.328735351563	1213.8798828125	248.5524139404298	1042.592529296875	1403.589721679688	150.9978179931641	909.894409179688	1337.18408203125	161.5843963623047	866.9848632812505	1328.756103515625	211.6492919921876	846.390502929688	1317.659912109375	166.5880889892579	795.8005371093755	1291.2109375	159.0736083984376	809.1044311523442	1197.668701171875	215.0642852783204	673.1892700195315	1273.965576171875	216.6994476318361	633.454040527344	1262.450805664063	267.4742431640626	613.1517333984377	1249.835571289063	222.5980987548829	580.2454833984377	1182.773071289063	305.407928466797	543.8502197265627	1215.02587890625	239.1942749023439	2309.250244140626	1284.962646484375	1515.53466796875	83.78637695312503	1283.437744140625	1540.571899414063	
4	0.015	1216.974609375	1573.117187500001	348.7005615234376	1140.705200195313	1588.636230468751	289.8020324707032	1292.809326171875	1588.360473632813	286.1003723144532	1213.573608398438	1449.501342773438	123.670768737793	1228.504760742188	1244.001586914063	69.74359893798831	1232.777221679688	1211.818115234375	65.69487762451175	1180.888549804688	1150.946166992188	60.62520599365237	1229.764770507813	1150.045654296875	69.77331542968753	1228.45849609375	1109.151000976563	83.32144165039065	1227.853149414063	1086.5830078125	60.22749328613284	1174.712524414063	1027.008056640625	61.46330642700198	1224.353271484375	1024.785034179688	54.06056213378909	1249.749267578125	974.870239257813	65.19379425048831	1199.87841796875	984.5341186523442	71.72549438476565	1211.151123046875	926.032104492188	42.10496139526369	1337.509399414063	943.021362304688	281.6946411132814	1109.748901367188	942.4098510742192	284.9839172363282	1261.421630859375	990.984985351563	76.55934143066409	1172.175170898438	989.649780273438	76.78198242187503	1445.195678710938	737.3112792968752	196.9270019531251	1428.291870117188	676.4248657226565	148.0999603271485	1440.93017578125	675.410339355469	196.8434448242189	1427.861328125	498.2550048828127	190.3309783935547	1284.194458007813	466.9873352050784	213.1475219726564	1429.302734375	442.1080017089846	150.6746063232422	1450.708740234375	325.7422485351564	143.2201690673829	1444.926147460938	259.3582458496095	100.5296096801758	1450.474365234375	263.8341674804689	149.8368225097657	1434.372314453125	85.06378173828128	125.8269042968751	1350.714477539063	96.33557128906256	169.0317382812501	1374.881103515625	38.66043853759767	78.32527160644534	1391.226196289063	47.42454910278322	289.6599731445314	1492.147705078125	32.12107849121095	238.5584411621095	1006.819702148438	708.3814697265627	170.3747253417969	993.2731323242192	636.452575683594	202.6203918457032	1009.907043457032	647.5961914062502	156.6301269531251	1014.123779296875	496.8912353515627	158.3444366455079	1152.197509765625	461.952819824219	206.1857757568361	1015.354064941407	442.1463012695315	114.7263717651368	998.9169311523442	322.8255920410157	90.54280853271487	983.7646484375005	255.5804901123048	130.1802673339844	1002.535583496094	261.4637756347657	83.88905334472659	1016.740478515625	86.58754730224612	89.88442230224612	1084.256469726563	96.96600341796881	152.7801055908204	1077.62939453125	38.05953216552736	57.93458938598636	1022.285766601563	43.2643280029297	261.5892639160157	937.282592773438	40.993221282959	202.3767242431642	1225.237060546875	1368.26220703125	273.817352294922	1227.0751953125	1210.692260742188	311.921844482422	1401.899780273438	1414.559448242188	135.9207763671876	1515.655395507813	1349.859252929688	124.4185333251954	1558.253906250001	1299.453125	115.5868301391602	1575.040161132813	1335.17919921875	149.6371612548829	1683.459472656251	1298.3818359375	161.6714782714844	1633.853881835938	1212.233154296875	184.8612060546876	1769.345336914063	1267.330078125	191.2500915527344	1823.817138671876	1231.091918945313	197.4514160156251	1817.175659179688	1262.8212890625	235.875213623047	1862.658081054688	1192.22265625	306.1157836914064	1905.324096679688	1213.912963867188	248.5470581054689	1042.581420898438	1403.585693359375	151.0418701171876	909.8729858398442	1337.18798828125	161.6171875000001	866.979858398438	1328.7705078125	211.695037841797	846.376831054688	1317.6728515625	166.6487731933594	795.7866210937505	1291.232788085938	159.1399230957032	809.0891113281255	1197.6875	215.1243896484376	673.179382324219	1273.996704101563	216.8065490722657	633.4590454101565	1262.477294921875	267.5354614257814	613.1350708007815	1249.878295898438	222.6755218505861	580.2336425781252	1182.805541992188	305.4698181152345	543.8454589843752	1215.07177734375	239.2664794921876	2309.251464843751	1284.961303710938	1515.531127929688	83.79087829589847	1283.432861328125	1540.569824218751	
